<?xml version="1.0" encoding="utf-8"?>
<!-- Generator: Adobe Illustrator 24.2.3, SVG Export Plug-In . SVG Version: 6.00 Build 0)  -->
<svg version="1.1" id="Layer_1" xmlns="http://www.w3.org/2000/svg" xmlns:xlink="http://www.w3.org/1999/xlink" x="0px" y="0px"
	 viewBox="0 0 250 150" style="enable-background:new 0 0 250 150;" xml:space="preserve">
<style type="text/css">
	.st0{fill:#379236;}
	.st1{fill:#65B32E;}
	.st2{fill:#222C56;}
	.st3{fill:#4EAE33;}
	.st4{fill:#073E62;}
	.st5{fill:#0A3F67;}
</style>
<g>
	<path class="st3" d="M132.5,17.7l-1.2,3l-3.7,9.5l-0.2,0.5c-1.1,2.7-2.1,5.3-3.2,8c-0.3,0.7-0.5,1.3-0.8,2l-8.2,19.8l-2.7,6.6
		l-4.4-5.5c-4.3-5.3-10-10-16.3-13c-3.2-1.5-6.5-2.8-9.9-3.5c-3.5-0.7-7-1.1-10.6-0.8c-6.7,0.1-13.4,2.2-19.5,5.5
		c-0.4,0.2-0.7,0.4-1.1,0.6c-3.1,1.9-6.1,4-8.9,6.5C39,59.1,36.3,62,34,65.1c1.2-2.5,2.6-4.8,4.3-7c0.7-0.9,1.4-1.8,2.1-2.7
		c0.7-0.8,1.4-1.6,2.1-2.4c1.9-2.1,4-4,6.3-5.8c6.3-4.8,14-8.1,22.1-9.1c4.1-0.6,8.2-0.4,12.3,0.1c4.1,0.6,8.1,1.7,11.8,3.4
		c3.8,1.6,7.4,3.7,10.7,6.2c1.5,1.1,2.9,2.3,4.3,3.5l5.5-13.9c0.5-1.4,1.1-2.8,1.7-4.2c0.8-1.9,1.6-3.8,2.4-5.8l0.8-2l2-4.9
		c-5.3-3.7-11.2-6.5-17.5-8.1c-7.3-1.8-15-2.1-22.4-0.4C75,13.8,68,17.3,61.6,22c-6.3,4.8-12,10.5-16.7,17.1
		c3.4-7.4,8.3-14.1,14.3-19.9c6-5.8,13.4-10.3,21.6-13c8.2-2.5,17.2-3,25.7-1.2c8.5,1.8,16.6,5.5,23.5,10.8L132.5,17.7z"/>
</g>
<g>
	<path class="st4" d="M141.1,43.9l2,2.8l-2.2,2.7l-7.2,9.1c-2.4,3-4.8,6.1-7.2,9.1l-14.7,18l-4.9,6l-2.9-7.1
		c-2.8-6.8-7.2-13.5-12.8-18.7c-2.8-2.5-5.9-4.9-9.2-6.7c-3.4-1.8-6.9-3.3-10.7-4.2c-7.2-2.1-14.9-1.9-22.4-0.3c1-0.7,2.1-1.4,3.2-2
		l1.1-0.6c3.5-1.8,6.9-3.2,10.2-4c3.1-0.1,6.2,0.2,9.3,0.7c4.4,0.7,8.6,2.2,12.7,4c4,1.9,7.9,4.3,11.3,7.2c3.4,2.9,6.5,6.2,9.2,9.7
		c1.2,1.6,2.3,3.3,3.4,5l3-3.8l3.9-4.9l3.2-4c2.4-3,4.9-6,7.3-9l5.1-6.2c-1.6-2-3.4-4-5.2-5.8l0.4-1c0.5-1.3,1.1-2.7,1.6-4
		c0.5-1.2,1-2.5,1.5-3.7C134.1,35.4,137.9,39.4,141.1,43.9z"/>
</g>
<path class="st4" d="M72.2,59.4c-1.5-0.5-4.4-1.3-7.9-1.5c-3.3-0.2-7.1,0.3-10,1c-5,1.2-14.3,5.9-18.5,10.6
	c-14.4,15.6-11.5,50.3,16.4,76.1c1.5-1.2,2.9-2.4,4.4-3.6c-3.7-3-8.2-7.4-12.2-13.4c-2.1-3.2-3.8-6.3-5-9c2.3-1.9,4.7-3.9,7-5.8
	c1.3,2.3,2.7,4.7,4.4,7.2c1.5,2.2,3,4.2,4.4,6c1.6-1.3,3.2-2.7,4.8-4c-2.7-2.9-5.9-6.9-8.8-12c-2.6-4.5-4.3-8.7-5.4-12.2
	c2.3-1.9,4.7-3.9,7-5.8c2.4,5.2,5.5,11.1,9.6,17.2c3.6,5.5,7.4,10.1,10.8,14c1.5-1.7,3.1-3.3,4.6-5c-3.7-4-7.8-9.2-11.6-15.6
	c-5.4-9.1-8.5-17.7-10.2-24.2c2.6-2.2,5.2-4.4,7.8-6.6c0.7,4.6,2.2,10.9,5.4,17.8c2.9,6.1,6.2,10.9,9,14.2c1.3-1.2,2.7-2.4,4-3.6
	c-2.6-2.8-5.4-7.6-7.8-13.4C69.1,75,71,63.8,72.2,59.4z"/>
<rect x="106.1" y="17.5" transform="matrix(0.899 0.438 -0.438 0.899 20.7413 -46.7782)" class="st3" width="11.3" height="8.2"/>
<g>
	<path class="st4" d="M90.6,110.5h7.9v14.3h0.2l10.5-14.3h8.7l-10.6,14l12.6,21.1h-8.7l-8.5-14.8l-4.1,5.4v9.4h-7.9V110.5z"/>
	<path class="st4" d="M134.4,110.5h8.7l5.7,15.6c0.7,2.1,1.3,4.3,2,6.5h0.2c0.7-2.2,1.3-4.4,2-6.5l5.5-15.6h8.7v35.1H160v-12.9
		c0-3.4,0.6-8.5,1-11.9h-0.2l-2.9,8.3l-5,13.4h-4.4l-5-13.4l-2.8-8.3h-0.2c0.4,3.4,1,8.5,1,11.9v12.9h-7.1V110.5z"/>
	<path class="st4" d="M183.9,141.2l4.6-5.4c2.5,2.2,5.7,3.7,8.6,3.7c3.3,0,4.9-1.3,4.9-3.4c0-2.2-2-2.9-5.1-4.2l-4.6-1.9
		c-3.6-1.5-7.1-4.5-7.1-9.6c0-5.8,5.2-10.5,12.5-10.5c4,0,8.3,1.6,11.3,4.6l-4,5c-2.3-1.8-4.5-2.7-7.3-2.7c-2.7,0-4.5,1.1-4.5,3.1
		c0,2.2,2.3,2.9,5.4,4.2l4.5,1.8c4.3,1.7,7,4.6,7,9.5c0,5.8-4.9,10.9-13.2,10.9C192.4,146.2,187.5,144.5,183.9,141.2z"/>
</g>
</svg>
